<svg id="Group_3" data-name="Group 3" xmlns="http://www.w3.org/2000/svg" width="120" height="27.596" viewBox="0 0 120 27.596">
  <g id="Group_1" data-name="Group 1">
    <path id="Path_19" data-name="Path 19" d="M17.9,18.274a1.151,1.151,0,0,0,.08-1.861,1.129,1.129,0,0,0-.721-.235l-3.345.033-1.09.005-2.4.02a4.279,4.279,0,0,1-3.675-2q-.033-.054-.065-.11a4.683,4.683,0,0,1,1.716-6.4l10.8-6.286a13.8,13.8,0,0,0-13.28,23.8l9.015-5.242Z" transform="translate(-0.68 -0.6)" fill="#213eb9"/>
    <path id="Path_20" data-name="Path 20" d="M102.55,29.59l-9.123,5.373-2.963,1.711a1.117,1.117,0,0,0-.4,1.5,1.108,1.108,0,0,0,.99.561h.012l3.345-.033,3.488-.025h.041a4.272,4.272,0,0,1,3.634,2.005q.033.054.066.11a4.683,4.683,0,0,1-1.716,6.4L89.269,53.387a13.8,13.8,0,0,0,13.281-23.8Z" transform="translate(-80.204 -26.624)" fill="#213eb9"/>
  </g>
  <path id="Path_21" data-name="Path 21" d="M571.126,66.94h3.414v-19l-3.414,2.011Z" transform="translate(-512.753 -43.097)" fill="#1a1c1c"/>
  <rect id="Rectangle_9" data-name="Rectangle 9" width="3.413" height="14.038" transform="translate(74.57 9.788)" fill="#1a1c1c"/>
  <rect id="Rectangle_10" data-name="Rectangle 10" width="3.413" height="14.038" transform="translate(51.988 9.808)" fill="#1a1c1c"/>
  <path id="Path_22" data-name="Path 22" d="M510.418,49.359a1.707,1.707,0,1,0,1.706,1.706A1.709,1.709,0,0,0,510.418,49.359Z" transform="translate(-456.725 -44.37)" fill="#1a1c1c"/>
  <path id="Path_23" data-name="Path 23" d="M731.1,49.359a1.707,1.707,0,1,0,1.706,1.706A1.709,1.709,0,0,0,731.1,49.359Z" transform="translate(-654.825 -44.37)" fill="#1a1c1c"/>
  <path id="Path_24" data-name="Path 24" d="M799.79,107.547h0a2.89,2.89,0,0,1-2.375,0,3.067,3.067,0,0,1-.972-.7,3.35,3.35,0,0,1-.653-1.025,3.29,3.29,0,0,1-.238-1.263V96.544h-3.742v8.819a5.738,5.738,0,0,0,.442,2.252,6.11,6.11,0,0,0,1.195,1.841,5.559,5.559,0,0,0,1.768,1.246,5.342,5.342,0,0,0,2.193.454,4.407,4.407,0,0,0,2.122-.516,6.789,6.789,0,0,0,1.779-1.415l.375-.411V110.6h3.741V96.544h-3.741V104.5a3.546,3.546,0,0,1-.237,1.287,3.169,3.169,0,0,1-.672,1.06A3.243,3.243,0,0,1,799.79,107.547Z" transform="translate(-710.855 -86.726)" fill="#1a1c1c"/>
  <path id="Path_25" data-name="Path 25" d="M974.8,92.791a5.367,5.367,0,0,0-1.7-1.244,4.856,4.856,0,0,0-2.064-.452,6.711,6.711,0,0,0-2.991.589,6.375,6.375,0,0,0-1.964,1.479l-.179.2-.158-.22a4.945,4.945,0,0,0-1.72-1.493,5.28,5.28,0,0,0-2.5-.559,3.472,3.472,0,0,0-1.927.535,6.264,6.264,0,0,0-1.545,1.466l-.375.492-.035-1.936H953.9v14.025h3.742V97.749a3.59,3.59,0,0,1,.224-1.272,3.549,3.549,0,0,1,.6-1.035,2.922,2.922,0,0,1,.89-.72,2.429,2.429,0,0,1,2.208-.017,2.783,2.783,0,0,1,.895.709,3.571,3.571,0,0,1,.595,1.036,3.487,3.487,0,0,1,.224,1.244v7.983h3.742V97.749a3.608,3.608,0,0,1,.222-1.272,3.564,3.564,0,0,1,.592-1.036,2.946,2.946,0,0,1,.885-.72,2.414,2.414,0,0,1,2.2-.016,2.776,2.776,0,0,1,.89.708,3.59,3.59,0,0,1,.592,1.036,3.54,3.54,0,0,1,.223,1.244v7.983h3.741v-8.79a6.084,6.084,0,0,0-.416-2.257A5.977,5.977,0,0,0,974.8,92.791Z" transform="translate(-856.357 -81.835)" fill="#1a1c1c"/>
  <path id="Path_26" data-name="Path 26" d="M637.322,62.986l-.008-.01a1.868,1.868,0,0,1-.38-.733l0-.039-.028-5.994h3.587V52.884H636.9l.026-4.942-3.4,2.011V62.7a3.786,3.786,0,0,0,.63,2.323,4.621,4.621,0,0,0,1.419,1.279,5.363,5.363,0,0,0,2.1.636h3.268V63.712h-1.853a2.336,2.336,0,0,1-1.11-.234A2.457,2.457,0,0,1,637.322,62.986Z" transform="translate(-568.767 -43.098)" fill="#1a1c1c"/>
  <path id="Path_27" data-name="Path 27" d="M354.989,43.337l3.756-.626c-.142-3.59-2.5-5.336-7.21-5.336-4.856,0-7.216,1.861-7.216,5.689-.01,2.871,1.634,4.737,5.026,5.706,3.9,1.116,5.652,2.181,5.664,3.453,0,1.239-.6,2.714-3.474,2.714-2.094,0-3.287-1.031-3.454-2.982l-3.756.626c.143,3.591,2.5,5.336,7.21,5.336,4.856,0,7.217-1.861,7.217-5.69-.01-2.87-1.664-4.737-5.056-5.705h0c-3.909-1.117-5.647-2.185-5.634-3.463,0-1.233.6-2.705,3.474-2.705C353.629,40.355,354.822,41.386,354.989,43.337Z" transform="translate(-309.155 -33.612)" fill="#1a1c1c"/>
</svg>
